<svg xmlns="http://www.w3.org/2000/svg" width="512" height="512" viewBox="0 0 512 512" role="img" aria-label="PhraseFrame">
  <defs>
    <linearGradient id="background" x1="72" y1="56" x2="440" y2="456" gradientUnits="userSpaceOnUse">
      <stop stop-color="#8068B2"/>
      <stop offset="1" stop-color="#57416F"/>
    </linearGradient>
    <linearGradient id="mint" x1="316" y1="100" x2="420" y2="242" gradientUnits="userSpaceOnUse">
      <stop stop-color="#D7F3E8"/>
      <stop offset="1" stop-color="#A9DDCB"/>
    </linearGradient>
  </defs>

  <rect width="512" height="512" rx="112" fill="url(#background)"/>
  <path d="M74 150C74 108 108 74 150 74h212c42 0 76 34 76 76v212c0 42-34 76-76 76H150c-42 0-76-34-76-76V150Z" fill="none" stroke="#FFFFFF" stroke-opacity=".08" stroke-width="4"/>

  <rect x="92" y="100" width="204" height="142" rx="30" fill="#FFFDF9"/>
  <rect x="316" y="100" width="104" height="142" rx="30" fill="url(#mint)"/>
  <path d="M92 292c0-16.569 13.431-30 30-30h268c16.569 0 30 13.431 30 30v90c0 16.569-13.431 30-30 30H174l-54 42v-42c-15.464-1.022-28-13.896-28-29.5V292Z" fill="#FFFDF9"/>

  <rect x="132" y="143" width="116" height="20" rx="10" fill="#6B548F"/>
  <rect x="132" y="181" width="76" height="20" rx="10" fill="#A896C9"/>

  <circle cx="356" cy="158" r="12" fill="#5E477C"/>
  <path d="M344 190c0-10.493 8.507-19 19-19h10c10.493 0 19 8.507 19 19v11h-48v-11Z" fill="#5E477C"/>

  <rect x="132" y="307" width="196" height="20" rx="10" fill="#6B548F"/>
  <rect x="132" y="345" width="124" height="20" rx="10" fill="#A896C9"/>
</svg>
